<svg id="Layer_1" data-name="Layer 1" xmlns="http://www.w3.org/2000/svg" viewBox="0 0 492.56 44.08"><defs><style>.cls-1,.cls-3{opacity:0.7;}.cls-2,.cls-3{fill:none;stroke:#fff;stroke-width:6px;}.cls-2{stroke-linecap:round;stroke-linejoin:round;}.cls-3{stroke-miterlimit:10;}</style></defs><title>metro-simple</title><g class="cls-1"><path class="cls-2" d="M595.74,45.46c-6.6-5.12-11.73-11.68-16.38-18.53-3.46-5.1-7-10.38-12.63-13.33s-11.81-3-17.93-3H154c-6.85,0-13.64,1.46-18.87,6.12-4.83,4.3-8,10.18-11.74,15.34a73.79,73.79,0,0,1-7.91,9c-.91.89-1.84,1.78-2.8,2.63-.78.69-2.2,1.43-2.63,2.42a1.79,1.79,0,0,0,1.63,2.45c2.15.17,4.38,0,6.54,0H594.55A1.77,1.77,0,0,0,595.74,45.46Z" transform="translate(-106.86 -7.59)"/></g><polyline class="cls-3" points="46.09 41 46.09 12 70.09 12 70.09 41"/><polyline class="cls-3" points="119.29 41 119.29 12 143.29 12 143.29 41"/><polyline class="cls-3" points="192.49 41 192.49 12 216.49 12 216.49 41"/><polyline class="cls-3" points="265.69 41 265.69 12 289.69 12 289.69 41"/><polyline class="cls-3" points="338.89 41 338.89 12 362.89 12 362.89 41"/><polyline class="cls-3" points="412.09 41 412.09 12 436.09 12 436.09 41"/></svg>